<svg xmlns="http://www.w3.org/2000/svg" viewBox="0 0 512 512">
  <circle cx="256" cy="256" r="256" fill="#58ee9c" />
  <g transform="translate(-110, 50) scale(0.8)">
    <path fill="#FCFE79" d="M399 103h143v41l-20 1v19h-21v21l-20 1v19h-21v21h82v61l-20 1v19h-21v21l-20 1v19h-21v21h-20v20h-21c-.023-7.936-.04-15.872-.052-23.808-.005-3.685-.012-7.37-.023-11.055-.011-3.553-.017-7.106-.02-10.659-.002-1.358-.005-2.717-.01-4.075-.008-1.897-.008-3.793-.009-5.69l-.006-3.277C419 328 419 328 420 327h20v-40l-9.347.016c-10.166.016-20.333.027-30.499.036-6.166.005-12.333.012-18.5.023-5.945.011-11.89.017-17.837.02-2.273.002-4.547.005-6.821.01-3.173.008-6.346.009-9.52.009l-2.879.01c-6.483-.01-6.483-.01-7.597-1.124a111.252 111.252 0 0 1-.114-5.713v-3.7l.016-4.028.005-4.099c.003-3.602.013-7.204.024-10.806.01-3.673.015-7.346.02-11.02.01-7.21.029-14.422.049-21.634h21v-40l20-1 1-40h20v-41Z" />
    <path fill="#29272A" d="M399 82h143v20c6.537-.04 6.537-.04 13.074-.09l2.453-.008 2.524-.016C562 102 562 102 563 103c.095 2.556.126 5.085.114 7.64v2.425c0 2.657-.009 5.313-.016 7.97l-.005 5.511c-.003 4.845-.013 9.69-.024 14.535-.01 4.94-.015 9.88-.02 14.82-.01 9.7-.029 19.4-.049 29.099l-21-1v41h20c1.954 1.954 1.12 4.934 1.124 7.534l-.01 2.851v2.986c0 3.273-.009 6.547-.016 9.82l-.005 6.79c-.003 5.969-.013 11.938-.024 17.907-.01 6.086-.015 12.172-.02 18.258-.01 11.952-.028 23.903-.049 35.854-2.404 1.202-3.684 1.039-6.352.879l-2.322-.13-2.951-.187L542 327v21h-21v21l-20-1v21h-21l1 20c-2.404 1.202-3.684 1.039-6.352.879l-2.322-.13-2.951-.187L460 409v21h-20v20l-20 1c-1.202-2.404-1.039-3.684-.879-6.352l.13-2.322.187-2.951L420 430h-21v-82h-61l-1-20-20-1V225h20l1 61 102 1v40l-20 1-1 61h21v-20h20v-21h21l-1-20h21v-21h21l-1-20h21v-61h-82v-21h21l-1-20h21v-21h21l-1-20h21v-41H399v41h-20l.035 8.715c.008 2.773.014 5.547.02 8.32.005 1.933.012 3.866.02 5.8.013 2.772.018 5.545.023 8.317l.015 2.636c0 2.071-.05 4.142-.113 6.212l-1 1h-20v40h-20v-41h20v-41h21v-41h20V82Z" />
  </g>
</svg>
