<?xml version="1.0" encoding="UTF-8"?>
<svg xmlns="http://www.w3.org/2000/svg" xmlns:xlink="http://www.w3.org/1999/xlink" width="297.638pt" height="420.945pt" viewBox="0 0 297.638 420.945">
  <defs>
    <!-- E-ink screen texture -->
    <pattern id="einkTexture" patternUnits="userSpaceOnUse" width="2" height="2">
      <rect width="2" height="2" fill="#f5f5f0"/>
      <rect width="1" height="1" fill="#f0f0eb" opacity="0.3"/>
    </pattern>
  </defs>

  <!-- Device body frame (from PDF page 1) -->
  <path fill-rule="nonzero" fill="rgb(89.468384%, 91.19873%, 91.96167%)" fill-opacity="1" d="M 96.941406 66.917969 C 88.25 65.164062 83.101562 67.941406 81.640625 75.179688 L 39.945312 281.605469 C 39.824219 282.203125 40.035156 283.003906 40.238281 283.777344 C 40.46875 284.660156 40.710938 285.574219 40.542969 286.402344 L 33.933594 319.125 C 33.765625 319.953125 33.191406 320.703125 32.632812 321.425781 C 32.148438 322.058594 31.644531 322.714844 31.523438 323.3125 L 26.1875 349.898438 C 24.722656 357.148438 28.375 361.714844 37.042969 363.464844 L 189.921875 394.34375 C 198.59375 396.09375 203.730469 393.304688 205.195312 386.054688 L 260.683594 111.339844 C 262.144531 104.105469 258.488281 99.546875 249.820312 97.796875 Z M 189.722656 395.324219 L 36.847656 364.445312 C 27.65625 362.589844 23.628906 357.492188 25.203125 349.699219 L 30.539062 323.117188 C 30.707031 322.289062 31.28125 321.539062 31.839844 320.8125 C 32.324219 320.183594 32.828125 319.527344 32.949219 318.929688 L 39.5625 286.203125 C 39.683594 285.605469 39.472656 284.804688 39.269531 284.03125 C 39.035156 283.148438 38.796875 282.234375 38.964844 281.40625 L 80.660156 74.980469 C 82.230469 67.203125 87.929688 64.074219 97.140625 65.9375 L 250.019531 96.816406 C 259.207031 98.671875 263.234375 103.761719 261.664062 111.539062 L 206.179688 386.253906 C 204.605469 394.042969 198.914062 397.183594 189.722656 395.324219 "/>

  <!-- Device inner frame outline -->
  <path fill="none" stroke="rgb(11%, 11%, 14%)" stroke-width="0.5" d="M 189.722656 395.324219 L 36.847656 364.445312 C 27.65625 362.589844 23.628906 357.492188 25.203125 349.699219 L 30.539062 323.117188 C 30.707031 322.289062 31.28125 321.539062 31.839844 320.8125 C 32.324219 320.183594 32.828125 319.527344 32.949219 318.929688 L 39.5625 286.203125 C 39.683594 285.605469 39.472656 284.804688 39.269531 284.03125 C 39.035156 283.148438 38.796875 282.234375 38.964844 281.40625 L 80.660156 74.980469 C 82.230469 67.203125 87.929688 64.074219 97.140625 65.9375 L 250.019531 96.816406 C 259.207031 98.671875 263.234375 103.761719 261.664062 111.539062 L 206.179688 386.253906 C 204.605469 394.042969 198.914062 397.183594 189.722656 395.324219 Z"/>

  <!-- Screen area background -->
  <path fill="url(#einkTexture)" d="M 100.59375 83.207031 C 99.140625 82.914062 97.722656 83.855469 97.429688 85.308594 L 50.261719 318.824219 C 49.96875 320.277344 50.910156 321.695312 52.363281 321.992188 L 191.902344 350.175781 C 193.355469 350.46875 194.773438 349.523438 195.066406 348.074219 L 242.234375 114.558594 C 242.527344 113.105469 241.585938 111.6875 240.132812 111.390625 Z"/>

  <!-- Screen border -->
  <path fill="none" stroke="#ccc" stroke-width="0.5" d="M 100.59375 83.207031 C 99.140625 82.914062 97.722656 83.855469 97.429688 85.308594 L 50.261719 318.824219 C 49.96875 320.277344 50.910156 321.695312 52.363281 321.992188 L 191.902344 350.175781 C 193.355469 350.46875 194.773438 349.523438 195.066406 348.074219 L 242.234375 114.558594 C 242.527344 113.105469 241.585938 111.6875 240.132812 111.390625 Z"/>

  <!-- Boot screen content (positioned and rotated to match tilted screen) -->
  <!-- Screen center: ~146, 217. Tilt angle: ~11.7 degrees (counterclockwise) -->
  <g transform="translate(146, 217) rotate(11.7)">
    <!-- CrossPoint Logo (Option 9) -->
    <g transform="translate(-18, -82) scale(0.22)">
      <path d="M141.133 1.93774C150.102 -3.44192 161.517 3.01665 161.521 13.4749V166.526C161.517 176.984 150.102 183.442 141.133 178.063L80.7588 141.837L20.3867 178.063C11.4176 183.442 0.00328866 176.984 0 166.526V13.4749C0.00337257 3.01685 11.4176 -3.44137 20.3867 1.93774L80.7598 38.1614L141.133 1.93774ZM121.275 117.524L92.3848 134.864L147.281 167.811C148.277 168.408 149.542 167.685 149.545 166.526V100.567L121.275 117.524ZM14.2393 12.1897C13.2438 11.5924 11.979 12.3152 11.9756 13.4749V86.6125L74.7725 124.29V48.51L14.2393 12.1897Z" fill="#1a1a1a"/>
    </g>

    <!-- "CrossPoint" text -->
    <text x="0" y="0" font-family="Arial, Helvetica, sans-serif" font-size="16" font-weight="bold"
          fill="#1a1a1a" text-anchor="middle">CrossPoint</text>

    <!-- "BOOTING" text -->
    <text x="0" y="20" font-family="Arial, Helvetica, sans-serif" font-size="10"
          fill="#555" text-anchor="middle">BOOTING</text>

    <!-- Version at bottom -->
    <text x="0" y="100" font-family="Arial, Helvetica, sans-serif" font-size="8"
          fill="#666" text-anchor="middle">0.9.0-ko.3</text>
  </g>

  <!-- Bottom buttons from PDF -->
  <path fill-rule="nonzero" fill="rgb(89.468384%, 91.19873%, 91.96167%)" fill-opacity="1" d="M 145.03125 379.359375 L 169.820312 384.363281 C 170.648438 384.53125 171.457031 383.996094 171.625 383.167969 C 171.792969 382.339844 171.253906 381.535156 170.425781 381.367188 L 145.636719 376.359375 Z M 169.625 385.347656 L 143.851562 380.140625 L 144.855469 375.179688 L 170.625 380.382812 C 171.996094 380.660156 172.882812 382 172.609375 383.367188 C 172.332031 384.734375 170.992188 385.625 169.625 385.347656 "/>
  <path fill-rule="nonzero" fill="rgb(89.468384%, 91.19873%, 91.96167%)" fill-opacity="1" d="M 119.609375 371.101562 C 118.785156 370.933594 117.976562 371.46875 117.808594 372.296875 C 117.640625 373.125 118.179688 373.933594 119.003906 374.101562 L 143.796875 379.109375 L 144.402344 376.109375 Z M 144.578125 380.289062 L 118.808594 375.082031 C 117.4375 374.808594 116.550781 373.46875 116.828125 372.101562 C 117.101562 370.730469 118.441406 369.84375 119.808594 370.121094 L 145.582031 375.324219 Z M 144.578125 380.289062 "/>
  <path fill-rule="nonzero" fill="rgb(89.468384%, 91.19873%, 91.96167%)" fill-opacity="1" d="M 85.46875 367.328125 L 110.257812 372.332031 C 111.085938 372.5 111.894531 371.964844 112.0625 371.136719 C 112.230469 370.3125 111.691406 369.503906 110.863281 369.335938 L 86.074219 364.328125 Z M 110.0625 373.316406 L 84.289062 368.109375 L 85.289062 363.148438 L 111.0625 368.351562 C 112.433594 368.628906 113.320312 369.96875 113.042969 371.335938 C 112.765625 372.703125 111.429688 373.59375 110.0625 373.316406 "/>
  <path fill-rule="nonzero" fill="rgb(89.468384%, 91.19873%, 91.96167%)" fill-opacity="1" d="M 60.046875 359.070312 C 59.222656 358.902344 58.414062 359.441406 58.246094 360.269531 C 58.078125 361.09375 58.617188 361.902344 59.441406 362.070312 L 84.234375 367.078125 L 84.839844 364.078125 Z M 85.015625 368.257812 L 59.246094 363.050781 C 57.875 362.777344 56.988281 361.4375 57.265625 360.070312 C 57.539062 358.699219 58.878906 357.8125 60.246094 358.089844 L 86.019531 363.292969 Z M 85.015625 368.257812 "/>

  <!-- XTEINK logo (from PDF) -->
  <path fill-rule="nonzero" fill="rgb(11.047363%, 10.797119%, 13.73291%)" fill-opacity="1" d="M 154.109375 29.605469 L 142.417969 29.605469 C 142.410156 29.605469 142.304688 29.710938 142.304688 29.71875 L 142.304688 31.8125 L 152.664062 31.8125 L 152.664062 33.949219 L 142.304688 33.949219 L 142.304688 35.011719 C 141.671875 34.988281 140.984375 35.085938 140.511719 35.546875 L 140.019531 36.15625 L 140.019531 28.347656 C 140.019531 28.058594 140.742188 27.472656 141.046875 27.472656 L 153.996094 27.472656 C 154.003906 27.472656 154.109375 27.578125 154.109375 27.585938 Z M 154.109375 29.605469 "/>
  <path fill-rule="nonzero" fill="rgb(11.047363%, 10.797119%, 13.73291%)" fill-opacity="1" d="M 122.882812 27.472656 L 117.398438 32.757812 L 123.414062 38.441406 L 119.871094 38.441406 C 116.148438 34.875 112.277344 31.460938 108.558594 27.894531 C 108.445312 27.78125 108.25 27.648438 108.257812 27.472656 L 111.796875 27.472656 L 115.53125 30.972656 L 119.261719 27.472656 Z M 122.882812 27.472656 "/>
  <path fill-rule="nonzero" fill="rgb(11.047363%, 10.797119%, 13.73291%)" fill-opacity="1" d="M 171.171875 38.441406 L 168.242188 38.441406 L 162.183594 30.59375 L 162.183594 38.441406 L 159.824219 38.441406 L 159.824219 27.472656 L 162.757812 27.472656 Z M 171.171875 38.441406 "/>
  <path fill-rule="nonzero" fill="rgb(11.047363%, 10.797119%, 13.73291%)" fill-opacity="1" d="M 188.691406 27.472656 L 184.046875 31.097656 L 189.226562 38.441406 L 186.332031 38.441406 C 185.03125 36.414062 183.496094 34.53125 182.214844 32.5 L 179.703125 34.328125 L 179.703125 31.660156 C 181.617188 30.351562 183.445312 28.875 185.300781 27.472656 Z M 188.691406 27.472656 "/>
  <path fill-rule="nonzero" fill="rgb(11.047363%, 10.797119%, 13.73291%)" fill-opacity="1" d="M 138.34375 27.472656 L 138.34375 29.605469 L 124.25 29.605469 L 124.25 27.585938 C 124.25 27.578125 124.359375 27.472656 124.367188 27.472656 Z M 138.34375 27.472656 "/>
  <path fill-rule="nonzero" fill="rgb(11.047363%, 10.797119%, 13.73291%)" fill-opacity="1" d="M 141.503906 38.515625 C 140.914062 38.417969 140.4375 37.765625 140.398438 37.1875 C 140.316406 36.007812 141.152344 35.609375 142.1875 35.542969 C 145.851562 35.304688 149.773438 35.726562 153.464844 35.546875 L 153.804688 35.699219 C 153.535156 35.542969 152.980469 36.15625 152.929688 36.15625 L 141.464844 36.15625 L 141.464844 36.382812 L 152.738281 36.382812 L 152.621094 36.921875 L 141.136719 36.929688 L 141.007812 37.144531 L 152.550781 37.144531 C 152.648438 37.144531 152.746094 37.644531 152.738281 37.753906 L 141.464844 37.753906 L 141.464844 37.910156 L 152.855469 37.910156 C 152.882812 37.910156 153.167969 38.226562 153.28125 38.246094 L 153.808594 38.515625 Z M 141.503906 38.515625 "/>
  <path fill-rule="nonzero" fill="rgb(11.047363%, 10.797119%, 13.73291%)" fill-opacity="1" d="M 157.613281 38.441406 L 155.328125 38.441406 L 155.328125 27.472656 L 157.613281 27.472656 Z M 157.613281 38.441406 "/>
  <path fill-rule="nonzero" fill="rgb(11.047363%, 10.797119%, 13.73291%)" fill-opacity="1" d="M 177.496094 38.441406 L 175.210938 38.441406 L 175.210938 27.472656 L 177.496094 27.472656 Z M 177.496094 38.441406 "/>
  <path fill-rule="nonzero" fill="rgb(11.047363%, 10.797119%, 13.73291%)" fill-opacity="1" d="M 132.476562 38.441406 L 130.117188 38.441406 L 130.117188 31.851562 C 130.117188 31.84375 130.222656 31.738281 130.230469 31.738281 L 132.363281 31.738281 C 132.371094 31.738281 132.476562 31.84375 132.476562 31.851562 Z M 132.476562 38.441406 "/>
  <path fill-rule="nonzero" fill="rgb(11.047363%, 10.797119%, 13.73291%)" fill-opacity="1" d="M 107.722656 38.441406 L 112.722656 33.648438 C 112.964844 33.84375 114.523438 35.183594 114.496094 35.347656 L 111.1875 38.441406 Z M 107.722656 38.441406 "/>
  <!-- Orange accent on X and I -->
  <path fill-rule="nonzero" fill="rgb(82.727051%, 43.232727%, 34.70459%)" fill-opacity="1" d="M 169.863281 27.566406 C 172.140625 27.382812 172.8125 30.617188 170.84375 31.449219 C 167.910156 32.683594 166.886719 27.8125 169.863281 27.566406 "/>
</svg>
